<svg width="310" height="59" viewBox="0 0 310 59" fill="none" xmlns="http://www.w3.org/2000/svg">
<circle cx="27.5" cy="27.8501" r="27.5" fill="#A7CC3D"/>
<path fill-rule="evenodd" clip-rule="evenodd" d="M42.5475 16.8287C42.1981 15.7649 41.6378 14.7741 40.8995 13.9545C40.164 13.1332 39.266 12.4731 38.2795 12.0262C36.3048 11.1217 33.9873 11.1291 32.0335 12.0224C30.0745 12.9058 28.5271 14.652 27.8241 16.7164C27.6484 17.232 27.5246 17.7662 27.4552 18.3071C27.3809 18.8427 27.3813 19.4106 27.39 19.9117L27.4176 23.0028L27.4641 29.1853L27.4808 32.2765C27.4828 32.7917 27.4772 33.3069 27.4851 33.822C27.4879 34.0778 27.4966 34.3416 27.495 34.5905C27.4982 34.8394 27.481 35.0868 27.4762 35.3362C27.4447 35.8324 27.3901 36.3311 27.2864 36.8236C27.186 37.3169 27.0247 37.7986 26.8187 38.2594C26.4047 39.1798 25.8196 40.0316 25.082 40.7225C23.6027 42.0951 21.5776 42.8435 19.5913 42.6692C18.5995 42.6012 17.6215 42.3162 16.742 41.8371C15.8606 41.3595 15.0849 40.681 14.4675 39.8757C14.1573 39.4739 13.8842 39.0421 13.6508 38.5885C13.4173 38.1355 13.2202 37.6608 13.0835 37.1676C12.788 36.1877 12.7198 35.1434 12.8543 34.1492C12.9281 33.6512 13.0429 33.1599 13.1961 32.6866C13.3557 32.215 13.5531 31.7621 13.7837 31.3369C14.0111 30.9099 14.2802 30.5153 14.5731 30.1533C14.8612 29.7879 15.1823 29.4574 15.5363 29.1763C16.9205 28.0144 18.7567 27.5148 20.6333 27.5079C22.5757 27.5108 24.5179 27.5404 26.4607 27.5289L26.4458 25.4174C24.5119 25.4602 22.577 25.5945 20.6434 25.7409C19.5651 25.8233 18.4999 26.092 17.499 26.5232C16.9978 26.7353 16.5219 27.007 16.0705 27.3059C15.6212 27.6091 15.1944 27.9447 14.8144 28.329C14.4274 28.7049 14.0879 29.1279 13.7855 29.5723C13.4817 30.0163 13.2163 30.4868 13.0015 30.9804C12.5529 31.9604 12.2654 33.0094 12.1492 34.0977C12.0419 35.196 12.1099 36.3218 12.3596 37.4141C12.6136 38.5061 13.0642 39.5626 13.7011 40.5188C14.3396 41.4711 15.1701 42.3265 16.1631 42.9782C17.1544 43.6286 18.3039 44.0659 19.4798 44.2432C19.6271 44.2707 19.7739 44.2849 19.9215 44.3009C20.0686 44.3173 20.2162 44.3333 20.3713 44.338C20.525 44.3466 20.6787 44.3525 20.8321 44.3491C20.9861 44.35 21.1399 44.3459 21.293 44.3345C21.9078 44.3006 22.5187 44.193 23.1115 44.0194C23.7047 43.8478 24.2823 43.6149 24.8346 43.3265C25.3875 43.0382 25.9067 42.6817 26.3951 42.2829C27.3621 41.4708 28.1577 40.4379 28.7478 39.2907C28.8238 39.1484 28.893 39.0025 28.9583 38.8546C29.0262 38.7076 29.0875 38.5581 29.1445 38.4064C29.266 38.1066 29.3644 37.7968 29.4459 37.4836C29.6141 36.8581 29.7189 36.2191 29.789 35.5814C29.8137 35.2616 29.8455 34.9428 29.8545 34.6236L29.87 34.2086L29.8895 33.822L29.9612 32.2765L30.0292 29.1853L30.1598 23.0028L30.2227 19.9117L30.229 19.5253L30.231 19.4329L30.2348 19.3682L30.2412 19.2388C30.2522 19.0669 30.2718 18.8965 30.2988 18.7281C30.3552 18.392 30.4326 18.0612 30.5485 17.7436C30.7784 17.1078 31.1395 16.5256 31.584 16.0227C32.033 15.5229 32.5817 15.1181 33.1844 14.8458C33.7881 14.5742 34.4434 14.4365 35.1129 14.4352C35.7816 14.4239 36.444 14.5552 37.0611 14.8232C37.6776 15.0905 38.2476 15.4941 38.7179 16.0034C39.1847 16.5154 39.5627 17.1199 39.804 17.7849C40.0467 18.4476 40.1557 19.1733 40.1207 19.9013C40.0887 20.6254 39.9149 21.3429 39.6004 22.0031C39.2841 22.6601 38.8378 23.2658 38.2783 23.7402C37.7206 24.2153 37.0679 24.5726 36.3686 24.775C36.0198 24.8794 35.6596 24.9502 35.2921 24.9807L35.154 24.9894C35.1037 24.9921 35.0722 24.9971 35.0024 24.9979L34.6296 25.0083L33.8839 25.0289L31.1065 25.1058L31.0553 27.5333L33.8839 27.5719L34.6296 27.5821L35.0024 27.5872L35.4017 27.5835C35.9401 27.5665 36.4782 27.4916 37.0042 27.3615C38.0583 27.1067 39.0622 26.6146 39.9243 25.9281C40.7904 25.2453 41.4993 24.3574 42.0195 23.3692C43.0628 21.3839 43.253 18.958 42.5475 16.8287Z" fill="#F25700"/>
<path fill-rule="evenodd" clip-rule="evenodd" d="M112.54 36.365H116.049V24.4997H112.54V36.365ZM114.294 23.1067C113.164 23.1067 112.251 22.1699 112.251 21.0649C112.251 19.9603 113.164 19.0234 114.294 19.0234C115.424 19.0234 116.337 19.9603 116.337 21.0649C116.337 22.1699 115.424 23.1067 114.294 23.1067ZM72.7515 27.2137H70.5642V22.7945H72.7515C74.1938 22.7945 75.2276 23.6111 75.2276 25.0041C75.2276 26.3971 74.1938 27.2137 72.7515 27.2137ZM78.8572 24.98C78.8572 21.5214 76.3334 19.552 72.6797 19.552H66.9585V36.365H70.5643V30.4084H72.6797C76.3334 30.4084 78.8572 28.4148 78.8572 24.98ZM85.3958 26.9257C86.8141 26.9257 87.8958 27.8384 88.0399 29.1112H82.7276C82.8718 27.9824 84.0017 26.9257 85.3958 26.9257ZM85.5639 36.6774C88.1601 36.6774 90.0831 35.4763 91.0686 33.531L88.1118 32.354C87.559 33.2426 86.8618 33.7952 85.5639 33.7952C84.0974 33.7952 82.8236 32.7861 82.7033 31.3931H91.429C91.4531 31.249 91.4772 30.9369 91.4772 30.5286C91.4772 26.8057 89.0014 24.1875 85.4198 24.1875C81.9102 24.1875 79.2661 26.8539 79.2661 30.4324C79.2661 34.1074 81.8619 36.6774 85.5639 36.6774ZM100.657 27.9105C100.465 27.8144 100.129 27.7665 99.7679 27.7665C97.821 27.7665 96.6672 29.2074 96.6672 31.5373V36.3651H93.1818V24.4998H96.6431V26.4455C97.2682 25.0762 98.5179 24.2355 100.056 24.2355C100.321 24.2355 100.585 24.2835 100.657 24.3076V27.9105ZM105.982 28.7271C105.333 28.5589 104.997 28.2468 104.997 27.8144C104.997 27.3341 105.453 26.9978 106.102 26.9978C106.823 26.9978 107.617 27.5742 107.977 28.4631L110.838 26.9499C110.093 25.2923 108.17 24.1876 106.126 24.1876C103.41 24.1876 101.535 25.7729 101.535 28.0307C101.535 29.9041 102.689 31.1531 104.925 31.6816L106.319 32.0179C107.04 32.1857 107.4 32.4982 107.4 32.9065C107.4 33.4829 106.896 33.8192 106.15 33.8192C105.261 33.8192 104.372 33.1948 103.939 32.2098L101.102 33.7713C101.896 35.5967 103.771 36.6776 106.126 36.6776C108.891 36.6776 110.91 34.9962 110.91 32.6184C110.91 30.937 109.708 29.688 107.473 29.1116L105.982 28.7271ZM122.344 28.7271C121.695 28.5589 121.359 28.2468 121.359 27.8144C121.359 27.3341 121.815 26.9978 122.464 26.9978C123.186 26.9978 123.979 27.5742 124.339 28.4631L127.2 26.9499C126.455 25.2923 124.532 24.1876 122.488 24.1876C119.772 24.1876 117.897 25.7729 117.897 28.0307C117.897 29.9041 119.051 31.1531 121.287 31.6816L122.681 32.0179C123.402 32.1857 123.762 32.4982 123.762 32.9065C123.762 33.4829 123.258 33.8192 122.512 33.8192C121.623 33.8192 120.734 33.1948 120.301 32.2098L117.465 33.7713C118.258 35.5967 120.133 36.6776 122.488 36.6776C125.253 36.6776 127.272 34.9962 127.272 32.6184C127.272 30.937 126.07 29.688 123.835 29.1116L122.344 28.7271ZM133.106 21.0172V24.4999H136.111V27.3821H133.106V31.7296C133.106 33.0027 133.659 33.5068 134.813 33.5068C135.246 33.5068 135.726 33.3869 136.111 33.1467V36.1733C135.582 36.4372 134.789 36.6533 133.659 36.6533C131.159 36.6533 129.621 35.1162 129.621 32.4742V27.3821H127.938V24.4999H129.621V21.0172H133.106ZM143.017 26.9257C144.436 26.9257 145.517 27.8384 145.661 29.1112H140.349C140.493 27.9824 141.623 26.9257 143.017 26.9257ZM143.186 36.6774C145.782 36.6774 147.705 35.4763 148.69 33.531L145.733 32.354C145.181 33.2426 144.483 33.7952 143.186 33.7952C141.719 33.7952 140.445 32.7861 140.325 31.3931H149.051C149.075 31.249 149.099 30.9369 149.099 30.5286C149.099 26.8057 146.623 24.1875 143.041 24.1875C139.532 24.1875 136.888 26.8539 136.888 30.4324C136.888 34.1074 139.484 36.6774 143.186 36.6774ZM154.313 36.3651H150.803V24.4998H154.313V26.013C155.034 24.8602 156.236 24.1876 157.822 24.1876C160.538 24.1876 162.197 26.0369 162.197 29.0395V36.3651H158.687V29.8559C158.687 28.295 157.918 27.4061 156.548 27.4061C155.202 27.4061 154.313 28.4149 154.313 30.0722V36.3651ZM168.409 24.4999V21.0172H164.923V24.4999H163.241V27.3821H164.923V32.4742C164.923 35.1162 166.462 36.6533 168.962 36.6533C170.091 36.6533 170.885 36.4372 171.413 36.1733V33.1467C171.029 33.3869 170.548 33.5068 170.116 33.5068C168.962 33.5068 168.409 33.0027 168.409 31.7296V27.3821H171.413V24.4999H168.409Z" fill="#4D4D4D"/>
<path d="M185.305 26.5957V20.4082H194.167V18.7109H183.5V35.9414H185.305V28.2715H193.416V26.5957H185.305ZM200.834 36.1455C204.272 36.1455 206.936 33.4922 206.936 30.0225C206.936 26.6494 204.272 23.9854 200.877 23.9854C197.418 23.9854 194.797 26.6387 194.797 30.1084C194.797 33.46 197.44 36.1455 200.834 36.1455ZM200.877 34.6201C198.32 34.6201 196.548 32.4932 196.548 30.0225C196.548 27.5625 198.299 25.5 200.834 25.5C203.391 25.5 205.185 27.6377 205.185 30.1084C205.185 32.5576 203.391 34.6201 200.877 34.6201ZM210.423 24.2002H208.715V31.4619C208.715 34.2012 210.294 36.167 213.162 36.167C214.891 36.167 216.266 35.3828 217.201 33.793V35.9414H218.877V24.2002H217.179V30.8926C217.179 32.9873 215.718 34.5986 213.677 34.5986C211.497 34.5986 210.423 33.127 210.423 31.0322V24.2002ZM230.13 35.9414H231.838V28.6797C231.838 25.9404 230.281 23.9746 227.391 23.9746C225.661 23.9746 224.276 24.7588 223.341 26.3486V24.2002H221.665V35.9414H223.373V29.249C223.373 27.1543 224.834 25.543 226.875 25.543C229.056 25.543 230.13 27.0146 230.13 29.1094V35.9414ZM233.639 30.0547C233.639 33.2666 235.776 36.1133 239.139 36.1133C241.405 36.1133 242.812 34.9316 243.725 33.4277L243.715 35.9414H245.401V18.0234H243.693V26.6602C242.748 25.2744 241.416 23.9854 239.139 23.9854C235.819 23.9854 233.639 26.9932 233.639 30.0547ZM239.493 34.6094C236.915 34.6094 235.39 32.5146 235.39 30.0977C235.39 27.5518 236.915 25.5215 239.493 25.5215C241.932 25.5215 243.715 27.7021 243.715 30.0332C243.715 32.4395 241.975 34.6094 239.493 34.6094ZM255.269 29.1631H252.014C249.919 29.1631 247.363 30.0117 247.363 32.5576V32.6865C247.363 34.6631 248.931 36.1455 251.305 36.1455C253.067 36.1455 254.334 35.3184 255.269 33.8789H255.28C255.28 34.4697 255.333 35.4365 255.43 35.9414H257.149C256.977 34.7705 256.956 33.6533 256.956 31.666V28.3574C256.956 27.9814 256.88 27.0469 256.601 26.4131C256.032 25.1133 254.807 23.9854 252.326 23.9854C248.942 23.9854 247.642 26.5742 247.545 27.5625L249.189 27.917C249.382 26.7891 250.295 25.5215 252.283 25.5215C254.227 25.5215 255.269 26.4883 255.269 28.3682V29.1631ZM255.269 30.5811V30.9893C255.269 33.1377 253.701 34.6309 251.606 34.6309C250.209 34.6309 249.092 33.8789 249.092 32.5469C249.092 30.9785 250.725 30.5811 251.993 30.5811H255.269ZM263.568 36.0381C263.869 36.0381 264.567 35.9629 264.911 35.8447V34.4268C264.643 34.4805 264.224 34.5127 263.848 34.5127C262.569 34.5127 261.946 33.9219 261.946 32.8584V25.7148H264.922V24.2002H261.946V20.8057H260.238V24.2002H258.068V25.7148H260.238V32.9014C260.238 34.6201 261.023 36.0381 263.568 36.0381ZM266.314 19.9893C266.314 20.6982 266.883 21.2783 267.603 21.2783C268.323 21.2783 268.892 20.6982 268.892 19.9893C268.892 19.2695 268.323 18.7002 267.603 18.7002C266.883 18.7002 266.314 19.2695 266.314 19.9893ZM266.744 24.2002V35.9414H268.463V24.2002H266.744ZM276.429 36.1455C279.867 36.1455 282.531 33.4922 282.531 30.0225C282.531 26.6494 279.867 23.9854 276.472 23.9854C273.013 23.9854 270.392 26.6387 270.392 30.1084C270.392 33.46 273.034 36.1455 276.429 36.1455ZM276.472 34.6201C273.915 34.6201 272.143 32.4932 272.143 30.0225C272.143 27.5625 273.894 25.5 276.429 25.5C278.986 25.5 280.78 27.6377 280.78 30.1084C280.78 32.5576 278.986 34.6201 276.472 34.6201ZM292.925 35.9414H294.633V28.6797C294.633 25.9404 293.075 23.9746 290.185 23.9746C288.456 23.9746 287.07 24.7588 286.136 26.3486V24.2002H284.46V35.9414H286.168V29.249C286.168 27.1543 287.629 25.543 289.67 25.543C291.85 25.543 292.925 27.0146 292.925 29.1094V35.9414Z" fill="#4D4D4D"/>
<path opacity="0.5" d="M68.9391 44.8119H67.3148V55.1501H73.6055V53.6419H68.9391V44.8119ZM76.0096 52.0822H81.3656C81.385 51.921 81.3914 51.7599 81.3914 51.5988C81.3914 49.4783 80.1475 47.9572 77.9496 47.9572C75.9064 47.9572 74.4047 49.6136 74.4047 51.6181C74.4047 53.7064 76.0225 55.2791 78.0979 55.2791C79.4965 55.2791 80.8758 54.4992 81.2754 53.1457L79.9477 52.7396C79.6641 53.5904 78.9293 53.9255 78.0785 53.9255C77.0408 53.9255 76.0482 53.165 76.0096 52.0822ZM77.9625 49.3042C78.9357 49.3042 79.7414 49.8908 79.793 50.9027H76.0934C76.2352 49.9359 76.9957 49.3042 77.9625 49.3042ZM86.8248 49.5169V48.1054H85.033V45.9205H83.4668V48.1054H82.1004V49.5169H83.4668V52.9652C83.4668 54.6796 84.2467 55.2146 85.6324 55.2146C85.8258 55.2146 86.3285 55.2017 86.7603 55.0728V53.7386C86.4574 53.7773 86.2641 53.7902 86.1223 53.7902C85.3359 53.7902 85.033 53.4873 85.033 52.8814V49.5169H86.8248ZM93.4506 52.05V48.1054H91.8779V52.4367C91.8779 54.0351 92.7545 55.2984 94.5205 55.2984C95.0748 55.2984 95.9965 55.1115 96.6732 54.2027V55.1501H98.2072V48.1054H96.6346V52.0242C96.6346 53.0876 96.0029 53.8095 95.0039 53.8095C93.9211 53.8095 93.4506 53.049 93.4506 52.05ZM102.609 55.2726C104.362 55.2726 105.181 54.164 105.181 53.0748C105.181 52.0693 104.472 51.2314 103.183 50.9542L102.216 50.748C101.823 50.6642 101.507 50.4322 101.507 50.0197C101.507 49.5427 101.978 49.2205 102.474 49.2205C103.305 49.2205 103.647 49.749 103.75 50.2066L105.078 49.8328C104.955 49.156 104.324 47.9507 102.474 47.9507C101.037 47.9507 99.9861 48.9884 99.9861 50.155C99.9861 51.0767 100.566 51.8759 101.849 52.1789L102.751 52.3916C103.344 52.5333 103.589 52.7847 103.589 53.165C103.589 53.6548 103.235 53.99 102.584 53.99C101.778 53.99 101.301 53.4679 101.172 52.8685L99.825 53.223C99.9152 54.0093 100.695 55.2726 102.609 55.2726ZM117.711 51.5988C117.711 49.8328 116.409 47.9636 114.243 47.9636C113.508 47.9636 112.406 48.3439 111.923 49.1431V44.3994H110.35V55.1501H111.884V54.0738C112.368 54.8794 113.528 55.2597 114.204 55.2597C116.293 55.2597 117.711 53.5195 117.711 51.5988ZM111.897 51.6181C111.897 50.3935 112.735 49.388 114.011 49.388C115.287 49.388 116.125 50.3935 116.125 51.6181C116.125 52.8298 115.281 53.8353 114.011 53.8353C112.735 53.8353 111.897 52.8234 111.897 51.6181ZM120.469 52.0822H125.825C125.845 51.921 125.851 51.7599 125.851 51.5988C125.851 49.4783 124.607 47.9572 122.409 47.9572C120.366 47.9572 118.864 49.6136 118.864 51.6181C118.864 53.7064 120.482 55.2791 122.558 55.2791C123.956 55.2791 125.336 54.4992 125.735 53.1457L124.407 52.7396C124.124 53.5904 123.389 53.9255 122.538 53.9255C121.501 53.9255 120.508 53.165 120.469 52.0822ZM122.422 49.3042C123.396 49.3042 124.201 49.8908 124.253 50.9027H120.553C120.695 49.9359 121.455 49.3042 122.422 49.3042ZM134.933 49.5169V48.1054H133.141V45.9205H131.575V48.1054H130.208V49.5169H131.575V52.9652C131.575 54.6796 132.354 55.2146 133.74 55.2146C133.934 55.2146 134.436 55.2017 134.868 55.0728V53.7386C134.565 53.7773 134.372 53.7902 134.23 53.7902C133.444 53.7902 133.141 53.4873 133.141 52.8814V49.5169H134.933ZM141.326 51.2056V55.1501H142.899V50.8125C142.899 49.2076 142.048 47.9572 140.256 47.9572C139.702 47.9572 138.819 48.1376 138.142 48.9949V44.3994H136.57V55.1501H138.142V51.225C138.142 50.1615 138.774 49.446 139.773 49.446C140.856 49.446 141.326 50.2001 141.326 51.2056ZM146.057 52.0822H151.413C151.433 51.921 151.439 51.7599 151.439 51.5988C151.439 49.4783 150.195 47.9572 147.997 47.9572C145.954 47.9572 144.452 49.6136 144.452 51.6181C144.452 53.7064 146.07 55.2791 148.146 55.2791C149.544 55.2791 150.923 54.4992 151.323 53.1457L149.995 52.7396C149.712 53.5904 148.977 53.9255 148.126 53.9255C147.088 53.9255 146.096 53.165 146.057 52.0822ZM148.01 49.3042C148.983 49.3042 149.789 49.8908 149.841 50.9027H146.141C146.283 49.9359 147.043 49.3042 148.01 49.3042ZM157.395 45.45V44.7152C156.015 44.9214 155.229 46.1267 155.229 47.4544C155.229 48.2021 155.648 48.8724 156.46 48.8724C157.053 48.8724 157.556 48.4535 157.556 47.8347C157.556 47.2611 157.156 46.8292 156.57 46.8292C156.428 46.8292 156.292 46.8486 156.176 46.9259C156.189 46.2169 156.698 45.5917 157.395 45.45ZM158.98 55.1501L159.934 52.7267H164.994L165.935 55.1501H167.63L163.447 44.8119H161.526L157.324 55.1501H158.98ZM164.433 51.2765H160.508L162.467 46.3716L164.433 51.2765ZM171.594 55.2017C172.161 55.2017 173.327 54.931 173.901 54.0158V55.1759C173.901 56.6519 172.76 57.2707 171.6 57.2707C170.614 57.2707 169.815 56.5939 169.666 55.8785L168.184 56.2974C168.487 57.9216 170.13 58.6757 171.664 58.6757C173.817 58.6757 175.474 57.3416 175.474 55.1115V48.1054H173.94V49.1753C173.366 48.2859 172.251 47.983 171.639 47.983C169.434 47.983 168.165 49.8843 168.165 51.5988C168.165 53.4937 169.563 55.2017 171.594 55.2017ZM173.927 51.5794C173.927 52.7847 173.102 53.7966 171.832 53.7966C170.556 53.7966 169.724 52.7912 169.724 51.5794C169.724 50.3613 170.549 49.388 171.826 49.388C173.102 49.388 173.927 50.3613 173.927 51.5794ZM178.709 52.0822H184.065C184.085 51.921 184.091 51.7599 184.091 51.5988C184.091 49.4783 182.847 47.9572 180.649 47.9572C178.606 47.9572 177.104 49.6136 177.104 51.6181C177.104 53.7064 178.722 55.2791 180.797 55.2791C182.196 55.2791 183.575 54.4992 183.975 53.1457L182.647 52.7396C182.364 53.5904 181.629 53.9255 180.778 53.9255C179.74 53.9255 178.748 53.165 178.709 52.0822ZM180.662 49.3042C181.635 49.3042 182.441 49.8908 182.493 50.9027H178.793C178.935 49.9359 179.695 49.3042 180.662 49.3042ZM190.453 51.2056V55.1501H192.025V50.8125C192.025 49.2076 191.174 47.9572 189.383 47.9572C188.828 47.9572 187.907 48.1441 187.23 49.0529V48.1054H185.696V55.1501H187.269V51.225C187.269 50.1615 187.9 49.446 188.899 49.446C189.982 49.446 190.453 50.2001 190.453 51.2056ZM197.968 49.5169V48.1054H196.176V45.9205H194.61V48.1054H193.243V49.5169H194.61V52.9652C194.61 54.6796 195.39 55.2146 196.775 55.2146C196.969 55.2146 197.471 55.2017 197.903 55.0728V53.7386C197.6 53.7773 197.407 53.7902 197.265 53.7902C196.479 53.7902 196.176 53.4873 196.176 52.8814V49.5169H197.968ZM201.906 55.2726C203.659 55.2726 204.478 54.164 204.478 53.0748C204.478 52.0693 203.769 51.2314 202.479 50.9542L201.513 50.748C201.12 50.6642 200.804 50.4322 200.804 50.0197C200.804 49.5427 201.274 49.2205 201.771 49.2205C202.602 49.2205 202.944 49.749 203.047 50.2066L204.374 49.8328C204.252 49.156 203.62 47.9507 201.771 47.9507C200.333 47.9507 199.283 48.9884 199.283 50.155C199.283 51.0767 199.863 51.8759 201.145 52.1789L202.048 52.3916C202.641 52.5333 202.886 52.7847 202.886 53.165C202.886 53.6548 202.531 53.99 201.88 53.99C201.074 53.99 200.597 53.4679 200.469 52.8685L199.121 53.223C199.212 54.0093 199.992 55.2726 201.906 55.2726ZM209.17 51.6181C209.17 53.6935 210.852 55.2726 212.889 55.2726C214.958 55.2726 216.601 53.6677 216.601 51.5859C216.601 49.5169 214.925 47.9572 212.902 47.9572C210.852 47.9572 209.17 49.5234 209.17 51.6181ZM210.775 51.5859C210.775 50.3677 211.612 49.3816 212.889 49.3816C214.165 49.3816 215.003 50.3935 215.003 51.6181C215.003 52.8298 214.178 53.8482 212.902 53.8482C211.625 53.8482 210.775 52.7912 210.775 51.5859ZM220.339 55.1501V49.4912H222.183V48.1054H220.339V47.2611C220.339 45.9334 221.255 45.7658 221.68 45.7658C221.886 45.7658 222.131 45.7851 222.247 45.8238V44.4896C222.093 44.4316 221.68 44.3671 221.358 44.3671C219.972 44.3671 218.76 45.1535 218.76 47.2869V48.1054H217.407V49.4912H218.76V55.1501H220.339ZM231.483 55.2726C234.519 55.2726 236.021 53.1199 236.356 51.8501L234.758 51.2958C234.538 52.0564 233.662 53.7515 231.522 53.7515C229.685 53.7515 227.996 52.2626 227.996 49.9617C227.996 47.6478 229.711 46.1912 231.528 46.1912C233.862 46.1912 234.584 47.9507 234.732 48.5953L236.324 48.0474C235.976 46.6359 234.461 44.6636 231.548 44.6636C228.738 44.6636 226.288 46.9001 226.288 50.0132C226.288 53.3519 228.879 55.2726 231.483 55.2726ZM242.595 51.2056V55.1501H244.168V50.8125C244.168 49.2076 243.317 47.9572 241.525 47.9572C240.971 47.9572 240.088 48.1376 239.411 48.9949V44.3994H237.838V55.1501H239.411V51.225C239.411 50.1615 240.043 49.446 241.042 49.446C242.125 49.446 242.595 50.2001 242.595 51.2056ZM251.812 55.1501C251.773 54.8214 251.76 54.4476 251.76 54.0158V50.6578C251.76 50.1808 251.696 49.7748 251.522 49.4009C251.051 48.3761 250.065 47.9572 248.879 47.9572C248.364 47.9572 247.854 48.0474 247.448 48.2279C246.469 48.6597 245.927 49.5492 245.869 50.1421L247.294 50.4644C247.41 49.7876 247.977 49.2978 248.834 49.2978C249.762 49.2978 250.22 49.8134 250.22 50.3742C250.22 50.7158 250.039 50.9671 249.562 50.9671H248.692C247.461 50.9671 245.76 51.4828 245.76 53.1199V53.1972C245.76 54.4154 246.759 55.2726 248.138 55.2726C248.795 55.2726 249.691 55.0406 250.207 54.1833C250.207 54.4347 250.233 54.9761 250.271 55.1501H251.812ZM250.207 52.2949C250.207 53.3583 249.524 54.0158 248.454 54.0158C247.79 54.0158 247.332 53.6291 247.332 53.0554C247.332 52.3916 248.093 52.0693 248.686 52.0693H250.207V52.2949ZM258.541 51.2056V55.1501H260.113V50.8125C260.113 49.2076 259.263 47.9572 257.471 47.9572C256.917 47.9572 255.995 48.1441 255.318 49.0529V48.1054H253.784V55.1501H255.357V51.225C255.357 50.1615 255.988 49.446 256.987 49.446C258.07 49.446 258.541 50.2001 258.541 51.2056ZM265.089 55.2017C265.656 55.2017 266.823 54.931 267.397 54.0158V55.1759C267.397 56.6519 266.256 57.2707 265.096 57.2707C264.11 57.2707 263.31 56.5939 263.162 55.8785L261.68 56.2974C261.983 57.9216 263.626 58.6757 265.16 58.6757C267.313 58.6757 268.969 57.3416 268.969 55.1115V48.1054H267.435V49.1753C266.862 48.2859 265.747 47.983 265.134 47.983C262.93 47.983 261.66 49.8843 261.66 51.5988C261.66 53.4937 263.059 55.2017 265.089 55.2017ZM267.422 51.5794C267.422 52.7847 266.597 53.7966 265.328 53.7966C264.052 53.7966 263.22 52.7912 263.22 51.5794C263.22 50.3613 264.045 49.388 265.321 49.388C266.597 49.388 267.422 50.3613 267.422 51.5794ZM272.205 52.0822H277.561C277.58 51.921 277.587 51.7599 277.587 51.5988C277.587 49.4783 276.343 47.9572 274.145 47.9572C272.102 47.9572 270.6 49.6136 270.6 51.6181C270.6 53.7064 272.218 55.2791 274.293 55.2791C275.692 55.2791 277.071 54.4992 277.471 53.1457L276.143 52.7396C275.859 53.5904 275.125 53.9255 274.274 53.9255C273.236 53.9255 272.244 53.165 272.205 52.0822ZM274.158 49.3042C275.131 49.3042 275.937 49.8908 275.988 50.9027H272.289C272.43 49.9359 273.191 49.3042 274.158 49.3042ZM278.792 48.1634V48.8982C280.165 48.6855 280.951 47.4867 280.951 46.1525C280.951 45.4048 280.539 44.741 279.727 44.741C279.127 44.741 278.624 45.1599 278.624 45.7722C278.624 46.3523 279.03 46.7841 279.611 46.7841C279.752 46.7841 279.888 46.7648 280.004 46.6875C279.991 47.39 279.488 48.0152 278.792 48.1634Z" fill="#4D4D4D"/>
</svg>
